<svg height="511pt" viewBox="0 -4 511.90017 511" width="511pt"
    xmlns="http://www.w3.org/2000/svg">
    <path d="m285.179688 272.070312c-24.820313 33.84375-51.289063 89.679688-44.257813 143.1875.308594 2.535157 1.875 4.746094 4.164063 5.878907 2.289062 1.132812 4.996093 1.042969 7.203124-.246094 2.445313-1.46875 5.136719-3.167969 7.757813-4.992187 1.742187-1.25 4.019531-1.46875 5.96875-.570313 1.945313.898437 3.257813 2.773437 3.4375 4.910156 1.097656 16.558594 4.910156 32.828125 11.28125 48.152344 1.152344 2.394531 3.464844 4.019531 6.105469 4.296875 2.644531.273438 5.242187-.84375 6.859375-2.949219 7.398437-9.101562 13.039062-19.492187 16.644531-30.652343.246094-1.011719 1.167969-1.71875 2.210938-1.691407 1.042968.023438 1.929687.773438 2.128906 1.796875 2.320312 12.582032 5.472656 24.992188 9.433594 37.160156.917968 2.597657 3.109374 4.539063 5.796874 5.144532 2.691407.601562 5.5-.214844 7.445313-2.167969l2.957031-2.960937c1.1875-1.210938 2.886719-1.769532 4.5625-1.5 1.671875.273437 3.109375 1.34375 3.847656 2.871093 5.480469 9.394531 13.238282 17.253907 22.5625 22.847657 5.234376 3.710937 12.078126 4.253906 17.832032 1.417968 5.753906-2.835937 9.492187-8.597656 9.738281-15.007812v-.867188c.039063-1.667968.898437-3.214844 2.300781-4.125 1.398438-.910156 3.160156-1.074218 4.703125-.429687 2.84375 1.222656 6.257813 2.601562 9.605469 3.636719 2.207031.695312 4.613281.207031 6.378906-1.289063 1.761719-1.5 2.628906-3.796875 2.300782-6.089844-1.820313-11.898437-5.617188-23.410156-11.230469-34.058593-.714844-1.257813-.578125-2.824219.34375-3.933594.925781-1.113282 2.4375-1.535156 3.804687-1.066406 6.332032 2.273437 12.90625 3.796874 19.59375 4.546874 1.238282.136719 2.453125-.386718 3.210938-1.375.753906-.988281.941406-2.300781.484375-3.457031-8.574219-21.996093-19.378907-43.054687-32.246094-62.847656-1.222656-1.683594-1.128906-3.984375.226563-5.566406 1.355468-1.578125 3.617187-2.023438 5.46875-1.070313 19.574218 10.375 39.730468 19.609375 60.371093 27.664063 2.1875.746093 4.609375.144531 6.195313-1.535157 1.585937-1.683593 2.042968-4.132812 1.171875-6.273437-2.1875-5.5-4.746094-10.847656-7.652344-16.003906-1.027344-1.652344-1.304687-3.664063-.765625-5.53125.535156-1.871094 1.839844-3.425781 3.585938-4.28125.65625-.304688 1.335937-.652344 2.027343-1.050781 2.003907-1.179688 3.382813-3.175782 3.78125-5.464844.394531-2.289063-.234375-4.632813-1.722656-6.414063-7.152344-8.734375-15.695313-16.234375-25.277344-22.199219-1.4375-.835937-2.195312-2.480468-1.894531-4.113281.300781-1.636719 1.597656-2.902343 3.238281-3.167969 4.367188-.582031 8.65625-1.628906 12.800781-3.125 1.980469-.835937 3.433594-2.578124 3.898438-4.679687.464844-2.097656-.113281-4.292969-1.554688-5.890625-14.804687-17.035156-61.207031-63.503906-125.015624-63.503906h-4.894532c-22.449218-.0625-43.585937 10.574218-56.917968 28.636718zm0 0" fill="#71c285"/>
    <path d="m354.714844 443.632812c-3.105469-.234374-5.847656-2.113281-7.1875-4.929687-23.707032-50.019531-44.757813-131.175781-34.953125-191.175781.40625-3.140625 2.492187-5.808594 5.441406-6.964844s6.296875-.609375 8.726563 1.417969c2.433593 2.03125 3.5625 5.226562 2.953124 8.335937-8.789062 53.800782 10.207032 131.78125 33.515626 180.953125 1.320312 2.792969 1.058593 6.078125-.691407 8.625s-4.722656 3.972657-7.804687 3.738281zm0 0" fill="#4c8056"/>
    <path d="m416.414062 338.890625c-1.101562.003906-2.195312-.203125-3.21875-.617187-37.828124-15.132813-83.058593-55.582032-96.777343-86.542969-1.34375-2.851563-1.039063-6.203125.796875-8.761719 1.835937-2.5625 4.914062-3.925781 8.042968-3.566406 3.128907.359375 5.816407 2.386718 7.023438 5.296875 10.585938 23.890625 51.054688 62.933593 87.351562 77.453125 3.871094 1.539062 6.097657 5.609375 5.3125 9.699218-.785156 4.089844-4.367187 7.042969-8.53125 7.039063zm0 0" fill="#4c8056"/>
    <path d="m294.921875 208.722656c-18.953125 8.398438-55.832031 78.96875-93.71875 116.804688-1.714844 1.675781-4.058594 2.539062-6.449219 2.375-2.390625-.167969-4.59375-1.347656-6.058594-3.242188l-.148437-.21875c-3.453125-4.582031-9.910156-5.625-14.628906-2.359375-10.460938 7.398438-22.105469 12.957031-34.433594 16.445313-3.230469 1.097656-6.796875.386718-9.359375-1.859375-2.566406-2.246094-3.738281-5.6875-3.078125-9.03125 2.578125-7.980469 6.386719-15.507813 11.28125-22.3125 1.972656-2.777344-1.683594-5.980469-4.683594-4.0625-14.355469 9.332031-29.335937 17.664062-44.832031 24.941406-2.769531 1.476563-6.125 1.308594-8.730469-.441406-2.609375-1.746094-4.042969-4.785157-3.730469-7.90625.742188-3.332031 1.683594-6.613281 2.820313-9.832031.527344-2.027344-.164063-4.179688-1.78125-5.515626-1.613281-1.339843-3.855469-1.621093-5.75-.722656-19.835937 8.175782-41.507813 10.855469-62.734375 7.75-3.5-.351562-6.550781-2.53125-8.011719-5.730468-1.460937-3.199219-1.113281-6.929688.914063-9.804688 7.539062-10.34375 16.847656-19.269531 27.5-26.363281 2.902344-1.535157 4.882812-4.382813 5.3125-7.636719.433594-3.257812-.738282-6.519531-3.144532-8.757812-4.273437-4.089844-7.984374-8.726563-11.046874-13.789063-1.878907-3.277344-2.121094-7.242187-.652344-10.722656 1.472656-3.480469 4.484375-6.074219 8.140625-7.015625 19.492187-6.585938 60.539062-16.488282 125.738281-13.65625 1.984375.085937 2.507812-2.414063.5625-2.8125-24.175781-4.886719-64.050781-13.21875-88.394531-19.414063-2.285157-.375-4.148438-2.035156-4.789063-4.257812-.640625-2.226563.058594-4.621094 1.796875-6.15625l6.316407-5.585938c1.097656-.960937 1.539062-2.46875 1.128906-3.871093-.40625-1.398438-1.589844-2.433594-3.027344-2.65625-12.332031-2.867188-24.386719-6.820313-36.023438-11.808594-1.703124-.734375-2.785156-2.429688-2.734374-4.28125.050781-1.851563 1.226562-3.484375 2.96875-4.121094 5.757812-2.566406 11.929687-4.085938 18.222656-4.488281 1.007812-.007813 1.9375-.535157 2.457031-1.398438s.554687-1.929687.09375-2.824219l-2.898437-5.164062c-.917969-1.9375-.671876-4.230469.644531-5.925781 1.316406-1.695313 3.472656-2.503907 5.578125-2.09375 5.621094.441406 11.199218 1.335937 16.679687 2.671875 2.054688.699218 4.328125.199218 5.90625-1.289063 1.574219-1.492187 2.199219-3.734375 1.617188-5.824219l-2.101563-5.589843c-.589844-2.011719-.078125-4.1875 1.34375-5.726563 1.421875-1.539062 3.546875-2.21875 5.601563-1.789062 18.1875 2.261718 35.875 7.539062 52.328125 15.621094 3.121094 1.535156 6.480468-1.625 4.433594-4.210938-5.621094-6.90625-10.183594-14.613281-13.539063-22.863281-.988281-3.488281.128906-7.230469 2.871094-9.605469 2.738281-2.371094 6.605469-2.941406 9.914062-1.460938 30.851563 10.664063 59.410157 27.066407 84.175781 48.335938 26.425782 24.292969 49.960938 51.558594 70.132813 81.253906zm0 0" fill="#71c285"/>
    <path d="m351.808594 182.582031c-31.09375 1.53125-60.207032-15.273437-74.433594-42.964843l-.128906-.25c-17.035156-34.070313-42.289063-43.277344-51.695313-84.046876-.164062-.710937.066407-1.457031.605469-1.949218.539062-.492188 1.304688-.65625 2-.429688l10.757812 3.585938c1.855469.621094 3.902344.050781 5.167969-1.445313 1.261719-1.492187 1.484375-3.605469.5625-5.332031-3.320312-6.015625-6.121093-12.300781-8.375-18.789062-.921875-2.808594.039063-5.890626 2.390625-7.683594 2.347656-1.789063 5.574219-1.894532 8.039063-.265625 1.207031.867187 2.5 1.824219 3.863281 2.933593 1.839844 1.492188 4.300781 1.96875 6.566406 1.273438 2.261719-.695312 4.03125-2.476562 4.714844-4.742188 1.675781-5.515624 4.171875-10.75 7.410156-15.519531 2.945313-4.328125 8.054688-6.660156 13.253906-6.042969 5.203126.621094 9.625 4.085938 11.46875 8.988282 9.621094 26.410156 17.585938 53.398437 23.855469 80.796875.273438 1.289062 1.410157 2.207031 2.726563 2.207031s2.449218-.917969 2.722656-2.207031c3.941406-19.671875 13.503906-56.5 33.394531-82.300781 1.789063-2.261719 4.710938-3.316407 7.535157-2.714844 2.824218.597656 5.0625 2.746094 5.777343 5.542968 1.667969 6.523438 2.683594 13.195313 3.035157 19.917969.089843 1.261719 1 2.3125 2.234374 2.585938 1.234376.269531 2.5-.300781 3.113282-1.40625 5.542968-10.074219 12.84375-19.082031 21.554687-26.589844 2.308594-1.917969 5.535157-2.285156 8.214844-.933594 2.679687 1.351563 4.300781 4.160157 4.136719 7.15625-.09375 1.941407-.382813 3.871094-.871094 5.753907-.230469.882812.128906 1.8125.890625 2.3125.765625.5 1.765625.453124 2.476563-.117188 10.246093-8.839844 22.257812-15.390625 35.234374-19.222656 2.609376-.6484378 5.371094.070312 7.335938 1.910156 1.960938 1.839844 2.859375 4.546875 2.382812 7.195312-2.027343 12.484376-7.742187 24.078126-16.410156 33.289063h5.824219c2.816406-.007813 5.375 1.640625 6.535156 4.207031 1.160157 2.566406.707031 5.578125-1.15625 7.6875-5.710937 6.441406-11.203125 14.363282-37.417969 14.363282l23.925782 8.757812c4.335937 0 7.375 6.332031 3.46875 8.25-13.613282 6.742188-28.394532 22.503906-47.625 30.574219-1.355469.550781-2.152344 1.964843-1.929688 3.410156.226563 1.445313 1.417969 2.550781 2.875 2.664063 6.882813.546874 13.730469 1.449218 20.515625 2.707031 4.40625.835937 8.109375 3.800781 9.882813 7.917969 1.777344 4.117187 1.394531 8.847656-1.023438 12.621093-4.925781 7.558594-12.746094 9.800781-24.714844 10.414063-1.972656.113281-3.695312 1.371094-4.40625 3.21875-.707031 1.847656-.265624 3.9375 1.128907 5.339844 1.886719 1.882812 2.59375 4.648437 1.839843 7.207031-.753906 2.558593-2.84375 4.5-5.453124 5.0625-14.449219 2.757812-29.082032 4.464843-43.777344 5.101562zm0 0" fill="#71c285"/>
    <g fill="#4c8056">
        <path d="m164.753906 260.789062c-3.898437.003907-7.324218-2.597656-8.367187-6.355468-1.042969-3.757813.546875-7.75 3.890625-9.757813 44.167968-26.503906 129.300781-43.738281 132.9375-44.457031.5625-.117188 1.132812-.175781 1.707031-.175781h60.746094c4.792969 0 8.679687 3.886719 8.679687 8.679687 0 4.792969-3.886718 8.675782-8.679687 8.675782h-59.875c-8.898438 1.839843-87.199219 18.519531-126.585938 42.148437-1.34375.8125-2.882812 1.242187-4.453125 1.242187zm0 0"/>
        <path d="m320.957031 257.734375c-3.050781-.003906-5.875-1.609375-7.441406-4.226563-1.5625-2.621093-1.636719-5.867187-.195313-8.554687 7.023438-13.402344 16.875-25.113281 28.871094-34.332031-9.515625-6.417969-16.617187-15.828125-20.183594-26.734375-1.0625-2.914063-.492187-6.171875 1.5-8.550781 1.988282-2.378907 5.097657-3.511719 8.152344-2.976563 3.054688.535156 5.589844 2.660156 6.652344 5.574219 7.8125 21.390625 23.882812 22.109375 24.566406 22.109375 4.226563.113281 7.761719 3.234375 8.402344 7.410156.644531 4.148437-1.792969 8.160156-5.769531 9.496094-16.191407 7.34375-29.261719 20.171875-36.910157 36.21875-1.511718 2.816406-4.449218 4.566406-7.644531 4.566406zm0 0"/>
        <path d="m425.09375 217.398438h-69.425781c-4.792969 0-8.675781-3.882813-8.675781-8.675782 0-4.792968 3.882812-8.679687 8.675781-8.679687h69.425781c59.460938 0 69.804688-19.898438 69.875-20.097657.980469-2.945312 3.457031-5.144531 6.496094-5.769531 3.039062-.625 6.183594.421875 8.242187 2.742188 2.0625 2.320312 2.730469 5.566406 1.75 8.511719-1.121093 3.273437-12.808593 31.96875-86.363281 31.96875zm0 0"/>
        <path d="m330.242188 189.195312c-.355469 0-.714844-.023437-1.066407-.070312-4.347656-.53125-7.617187-4.226562-7.621093-8.605469 0-1.546875.21875-3.792969.503906-6.570312 1.285156-12.289063 3.699218-35.171875-13.988282-46.957031-2.640624-1.695313-4.160156-4.679688-3.976562-7.8125.183594-3.128907 2.039062-5.917969 4.859375-7.292969s6.160156-1.121094 8.742187.664062c8.472657 5.566407 14.945313 13.691407 18.472657 23.199219 9.085937-24.160156 22.65625-46.382812 40-65.503906 3.402343-3.289063 8.816406-3.242188 12.164062.105468 3.347657 3.347657 3.394531 8.761719.105469 12.167969-32.570312 32.574219-49.613281 99.429688-49.785156 100.105469-.96875 3.859375-4.433594 6.566406-8.410156 6.570312zm0 0"/>
        <path d="m294.921875 217.398438c-.84375 0-1.679687-.125-2.488281-.363282-3.585938-1.078125-88.324219-26.652344-132.148438-52.9375-4.011718-2.507812-5.273437-7.769531-2.835937-11.824218 2.4375-4.054688 7.675781-5.410157 11.773437-3.046876 41.949219 25.164063 127.332032 50.9375 128.191406 51.199219 4.097657 1.257813 6.664063 5.316407 6.039063 9.554688-.621094 4.242187-4.246094 7.390625-8.53125 7.417969zm0 0"/>
    </g>
</svg>